<svg width="79" height="87" viewBox="0 0 79 87" fill="none" xmlns="http://www.w3.org/2000/svg">
<path fill-rule="evenodd" clip-rule="evenodd" d="M27.1875 41.4609V0C27.1875 6.75677 32.6651 12.2344 39.4219 12.2344C46.1786 12.2344 51.6562 6.75677 51.6562 0V41.4609H27.1875Z" fill="#016CBE"/>
<path fill-rule="evenodd" clip-rule="evenodd" d="M67.6289 0V23.7891C67.6289 32.2722 72.2868 39.7451 78.8438 44.1345V87C78.8438 87 74 87 69 87H9C4 87 0 87 0 87L0 44.1345C6.55661 39.7451 11.2148 32.2722 11.2148 23.7891V0H26.8477V29.2266C26.8477 35.9833 32.6651 41.4609 39.4219 41.4609C46.1786 41.4609 51.9961 35.9833 51.9961 29.2266V0H67.6289Z" fill="#659FFF"/>
<path fill-rule="evenodd" clip-rule="evenodd" d="M13.5938 0V23.4492C13.5938 33.5103 8.12362 42.2868 0 46.9882V43.7946C6.55661 39.4052 10.875 31.9324 10.875 23.4492V0H13.5938ZM54.375 0V28.8867C54.375 37.1449 47.6801 43.8398 39.4219 43.8398C31.1633 43.8398 24.4688 37.1449 24.4688 28.8867V0H27.1875V28.8867C27.1875 35.6435 32.6651 41.1211 39.4219 41.1211C46.1786 41.1211 51.6562 35.6435 51.6562 28.8867V0H54.375ZM65.25 23.4492V0H67.9688V23.4492C67.9688 31.9324 72.2868 39.4052 78.8438 43.7946V46.9882C70.7201 42.2868 65.25 33.5103 65.25 23.4492Z" fill="#002D64"/>
<path fill-rule="evenodd" clip-rule="evenodd" d="M33.6445 87V70.6875H30.9258C29.4244 70.6875 28.207 69.4702 28.207 67.9688V63.2109C28.207 61.7095 29.4244 60.4922 30.9258 60.4922H42.4805C43.9819 60.4922 45.1992 61.7095 45.1992 63.2109V87H33.6445Z" fill="#002D64"/>
</svg>
